<svg xmlns="http://www.w3.org/2000/svg" width="722" height="516" viewBox="0 0 722 516" font-family="'Segoe UI', 'Helvetica Neue', Arial, sans-serif" role="img">
<title>Sơ đồ tư duy: Lịch sử là gì?</title>
<rect width="722" height="516" fill="#FFFFFF"/>
<path d="M182,258 C216,258 205,68 238,68" fill="none" stroke="#3949AB" stroke-width="2" opacity="0.65"/>
<path d="M389,68 C423,68 411,43 445,43" fill="none" stroke="#3949AB" stroke-width="1.4" opacity="0.5"/>
<path d="M389,68 C423,68 411,93 445,93" fill="none" stroke="#3949AB" stroke-width="1.4" opacity="0.5"/>
<path d="M182,258 C216,258 205,178 238,178" fill="none" stroke="#00897B" stroke-width="2" opacity="0.65"/>
<path d="M389,178 C423,178 411,153 445,153" fill="none" stroke="#00897B" stroke-width="1.4" opacity="0.5"/>
<path d="M389,178 C423,178 411,203 445,203" fill="none" stroke="#00897B" stroke-width="1.4" opacity="0.5"/>
<path d="M182,258 C216,258 205,288 238,288" fill="none" stroke="#EF6C00" stroke-width="2" opacity="0.65"/>
<path d="M389,288 C423,288 411,263 445,263" fill="none" stroke="#EF6C00" stroke-width="1.4" opacity="0.5"/>
<path d="M389,288 C423,288 411,313 445,313" fill="none" stroke="#EF6C00" stroke-width="1.4" opacity="0.5"/>
<path d="M182,258 C216,258 205,423 238,423" fill="none" stroke="#C2185B" stroke-width="2" opacity="0.65"/>
<path d="M389,423 C423,423 411,373 445,373" fill="none" stroke="#C2185B" stroke-width="1.4" opacity="0.5"/>
<path d="M389,423 C423,423 411,423 445,423" fill="none" stroke="#C2185B" stroke-width="1.4" opacity="0.5"/>
<path d="M389,423 C423,423 411,473 445,473" fill="none" stroke="#C2185B" stroke-width="1.4" opacity="0.5"/>
<rect x="24" y="234" width="158" height="48" rx="8" fill="#3949AB" stroke="#283593" stroke-width="1.5"/><text x="103" y="258" fill="#FFFFFF" font-size="17" font-weight="600" text-anchor="middle" dominant-baseline="central">Lịch sử là gì</text>
<rect x="238" y="46" width="151" height="44" rx="8" fill="#E8EAF6" stroke="#3949AB" stroke-width="1.5"/><text x="314" y="68" fill="#1A237E" font-size="15" font-weight="600" text-anchor="middle" dominant-baseline="central">Sự biến đổi</text>
<rect x="445" y="24" width="253" height="38" rx="8" fill="#FFFFFF" stroke="#3949AB" stroke-width="1.5"/><text x="572" y="43" fill="#333333" font-size="13" font-weight="400" text-anchor="middle" dominant-baseline="central">Mọi vật thay đổi theo thời gian</text>
<rect x="445" y="74" width="253" height="38" rx="8" fill="#FFFFFF" stroke="#3949AB" stroke-width="1.5"/><text x="572" y="93" fill="#333333" font-size="13" font-weight="400" text-anchor="middle" dominant-baseline="central">Con người và xã hội cũng vậy</text>
<rect x="238" y="156" width="151" height="44" rx="8" fill="#E0F2F1" stroke="#00897B" stroke-width="1.5"/><text x="314" y="178" fill="#004D40" font-size="15" font-weight="600" text-anchor="middle" dominant-baseline="central">Lịch sử</text>
<rect x="445" y="134" width="253" height="38" rx="8" fill="#FFFFFF" stroke="#00897B" stroke-width="1.5"/><text x="572" y="153" fill="#333333" font-size="13" font-weight="400" text-anchor="middle" dominant-baseline="central">Tất cả những gì đã xảy ra</text>
<rect x="445" y="184" width="253" height="38" rx="8" fill="#FFFFFF" stroke="#00897B" stroke-width="1.5"/><text x="572" y="203" fill="#333333" font-size="13" font-weight="400" text-anchor="middle" dominant-baseline="central">Khoa học phục dựng quá khứ</text>
<rect x="238" y="266" width="151" height="44" rx="8" fill="#FFF3E0" stroke="#EF6C00" stroke-width="1.5"/><text x="314" y="288" fill="#E65100" font-size="15" font-weight="600" text-anchor="middle" dominant-baseline="central">Môn Lịch sử</text>
<rect x="445" y="244" width="253" height="38" rx="8" fill="#FFFFFF" stroke="#EF6C00" stroke-width="1.5"/><text x="572" y="263" fill="#333333" font-size="13" font-weight="400" text-anchor="middle" dominant-baseline="central">Tìm hiểu xã hội loài người</text>
<rect x="445" y="294" width="253" height="38" rx="8" fill="#FFFFFF" stroke="#EF6C00" stroke-width="1.5"/><text x="572" y="313" fill="#333333" font-size="13" font-weight="400" text-anchor="middle" dominant-baseline="central">Từ khi có con người đến nay</text>
<rect x="238" y="401" width="151" height="44" rx="8" fill="#FCE4EC" stroke="#C2185B" stroke-width="1.5"/><text x="314" y="423" fill="#880E4F" font-size="15" font-weight="600" text-anchor="middle" dominant-baseline="central">Vì sao cần học</text>
<rect x="445" y="354" width="253" height="38" rx="8" fill="#FFFFFF" stroke="#C2185B" stroke-width="1.5"/><text x="572" y="373" fill="#333333" font-size="13" font-weight="400" text-anchor="middle" dominant-baseline="central">Hiểu nguồn gốc</text>
<rect x="445" y="404" width="253" height="38" rx="8" fill="#FFFFFF" stroke="#C2185B" stroke-width="1.5"/><text x="572" y="423" fill="#333333" font-size="13" font-weight="400" text-anchor="middle" dominant-baseline="central">Hiểu hiện tại</text>
<rect x="445" y="454" width="253" height="38" rx="8" fill="#FFFFFF" stroke="#C2185B" stroke-width="1.5"/><text x="572" y="473" fill="#333333" font-size="13" font-weight="400" text-anchor="middle" dominant-baseline="central">Định hướng tương lai</text>
</svg>